<?xml version="1.0" encoding="UTF-8" standalone="no"?><svg xmlns="http://www.w3.org/2000/svg" xmlns:xlink="http://www.w3.org/1999/xlink" contentScriptType="text/ecmascript" fill="#000000" width="59.7" zoomAndPan="magnify" contentStyleType="text/css" viewBox="0.1 0.2 59.7 59.5" height="59.5" preserveAspectRatio="xMidYMid meet" version="1"><g id="change1_1"><path fill="inherit" d="m43 22.7c-.4.2-.5.6-.4 1 2.3 4.9 1.8 10.6-1.2 14.9-2.9 4.2-7.7 6.2-13.1 5.7-4-.4-7.8-2.8-10.2-6.4-2.3-3.6-2.9-7.9-1.5-12.1.1-.4.4-.8.6-1.2.1-.2.2-.4.3-.6.2-.4 0-.8-.3-1-.4-.2-.8 0-1 .3-.1.2-.2.4-.3.6-.3.5-.5 1-.7 1.5-1.5 4.6-1 9.4 1.6 13.4s6.8 6.6 11.3 7.1c.6.1 1.2.1 1.8.1 5.2 0 9.8-2.3 12.7-6.4 3.4-4.7 3.9-11 1.4-16.4-.2-.5-.7-.7-1-.5z"/></g><g id="change1_2"><path fill="inherit" d="m30 42.4c3.3 0 6.6-1.4 8.9-3.7 2.2-2.2 3.3-5.2 3.3-8.5-.1-6.8-5.2-12-12-12-.6 0-1.1 0-1.7.1-2.4.3-3.6.8-4.8 1.5-3.2 1.9-5.3 5.2-5.7 8.7-.4 3.7.6 7.2 2.9 9.8s5.6 4.1 9.1 4.1zm-10.6-13.7c.3-3.1 2.2-6 5-7.6 1-.6 2.1-1.1 4.2-1.3.5-.1 1-.1 1.5-.1 6 0 10.4 4.4 10.5 10.5 0 3-1 5.5-2.9 7.5-2 2-4.9 3.2-7.8 3.2-3.1 0-6-1.3-8-3.5-1.9-2.3-2.8-5.3-2.5-8.7z"/></g><g id="change1_3"><path fill="inherit" d="m28.5 39.4c.4.1.9.1 1.3.1 4.3 0 8.3-3 9.3-6.9.7-2.9.1-5.8-1.6-8-1.9-2.4-4.9-3.7-7.9-3.5-5.1.4-7.2 3.5-8 5.4-1.2 2.7-1 5.7.4 8.2s3.9 4.4 6.5 4.7zm-5.6-12.3c.8-1.9 2.6-4.2 6.7-4.5h.5c2.4 0 4.6 1.1 6.1 3s1.9 4.2 1.3 6.7c-.8 3.3-4.1 5.7-7.8 5.7-.4 0-.7 0-1.1-.1-2.1-.3-4.2-1.8-5.4-3.9-1.1-2.1-1.3-4.6-.3-6.9z"/></g><g id="change1_4"><path fill="inherit" d="m11.2 16.4c.4 0 .8-.3.8-.8v-14.1c0-.4-.3-.8-.8-.8s-.8.3-.8.8v14.1c0 .5.4.8.8.8z"/></g><g id="change1_5"><path fill="inherit" d="m56.2 3.7c-1.9-1.9-4.7-3.2-7.4-3.5h-32.2c-.4 0-.8.3-.8.8v14.7c0 .4.3.8.8.8s.8-.3.8-.8v-13.9h31.4c2.8.3 5.2 1.7 6.5 3 2.8 2.8 3.1 7.8 3 14.4h-17.2c-.4-.1-.9-.6-1.3-.9-.2-.2-.4-.4-.6-.5-2.5-1.9-5.8-2.9-9.1-2.9h-.1c-3.4 0-6.6 1.1-9.1 2.9-.2.1-.4.3-.6.5-.4.4-.9.8-1.3.9h-17.2c-.1-5.9.1-11.4 3-14.4.2-.2.5-.4.7-.6v11.5c0 .4.3.8.8.8s.8-.3.8-.8v-13c0-.3-.1-.5-.4-.7-.2-.1-.5-.1-.7.1-.9.5-1.6 1-2.2 1.6-3.5 3.5-3.7 9.7-3.5 16.2 0 .1 0 .2.1.3v28.8c.6 5.8 5 10.1 10.9 10.7h18.8 18.8c5.5-.6 10.1-5.1 10.7-10.6v-29.2c.2-7.4 0-12.8-3.4-16.2zm-7.3 54.5h-37.5c-5.1-.5-9-4.3-9.5-9.3v-28.2h17.1.2c.7-.2 1.4-.7 2-1.2.2-.2.4-.3.6-.4 2.3-1.7 5.2-2.6 8.3-2.6 3 0 6 1 8.2 2.6.2.1.4.3.6.4.6.5 1.3 1.1 2 1.2h.2 17.2v28.4c-.7 4.7-4.7 8.7-9.4 9.1z"/></g><g id="change1_6"><path fill="inherit" d="m51.7 16c1.2 0 2.2-1 2.2-2.2v-6.2c0-1.2-1-2.2-2.2-2.2h-6.2c-1.2 0-2.2 1-2.2 2.2v6.2c0 1.2 1 2.2 2.2 2.2zm-6.9-2.2v-6.2c0-.4.3-.7.7-.7h6.2c.4 0 .7.3.7.7v6.2c0 .4-.3.7-.7.7h-6.2c-.4 0-.7-.3-.7-.7z"/></g></svg>