<?xml version="1.0" encoding="UTF-8" standalone="no"?><svg xmlns="http://www.w3.org/2000/svg" xmlns:xlink="http://www.w3.org/1999/xlink" contentScriptType="text/ecmascript" fill="#000000" width="799.8" zoomAndPan="magnify" contentStyleType="text/css" viewBox="23.0 140.5 799.8 309.2" height="309.2" preserveAspectRatio="xMidYMid meet" version="1"><g><g id="change1_1"><path fill="#ffffff" d="M 757.332031 152.859375 C 756.375 153.546875 725.582031 175.351562 668.40625 196.867188 C 633.375 210.046875 595.382812 220.554688 555.199219 228.1875 C 529.445312 178.472656 478.0625 146.480469 420.65625 146.480469 C 361.40625 146.480469 308.089844 181.320312 283.429688 233.714844 C 157.023438 213.296875 86.363281 164.457031 84.433594 163.101562 C 67.527344 150.863281 43.796875 154.589844 31.449219 171.449219 C 25.449219 179.648438 22.996094 189.691406 24.550781 199.734375 C 26.101562 209.773438 31.472656 218.609375 39.671875 224.609375 C 43.125 227.140625 75.144531 249.976562 134.847656 272.816406 C 176.671875 288.820312 221.824219 300.804688 269.390625 308.539062 C 274.765625 387.296875 340.558594 449.726562 420.65625 449.726562 C 502.835938 449.726562 569.953125 384.011719 572.222656 302.375 C 616.035156 293.898438 657.605469 282.273438 696.109375 267.722656 C 763.429688 242.277344 798.609375 216.949219 802.386719 214.15625 C 819.234375 201.707031 822.824219 177.855469 810.378906 160.980469 C 797.964844 144.164062 774.195312 140.535156 757.332031 152.859375"/></g><g id="change2_1"><path fill="#cd2c24" d="M 420.65625 192.125 C 362.21875 192.125 314.679688 239.667969 314.679688 298.105469 C 314.679688 356.539062 362.21875 404.085938 420.65625 404.085938 C 479.097656 404.085938 526.636719 356.539062 526.636719 298.105469 C 526.636719 239.667969 479.097656 192.125 420.65625 192.125"/></g><g id="change3_1"><path fill="#231f20" d="M 526.644531 298.101562 C 526.644531 356.546875 479.097656 404.09375 420.652344 404.09375 C 362.230469 404.09375 314.683594 356.546875 314.683594 298.101562 C 314.683594 293.976562 314.910156 289.90625 315.386719 285.910156 C 316.128906 279.484375 317.441406 273.226562 319.285156 267.199219 C 332.542969 223.78125 372.976562 192.132812 420.652344 192.132812 C 466.714844 192.132812 506.007812 221.648438 520.574219 262.785156 C 522.707031 268.738281 524.285156 274.921875 525.3125 281.308594 C 526.1875 286.785156 526.644531 292.398438 526.644531 298.101562 Z M 787.421875 177.925781 C 784.320312 173.703125 778.367188 172.8125 774.128906 175.910156 C 773.804688 176.15625 741.035156 200.027344 678.445312 223.570312 C 644.367188 236.390625 597.085938 250.652344 537.769531 260.199219 C 521.773438 210.808594 475.3125 175.015625 420.652344 175.015625 C 364.167969 175.015625 316.433594 213.261719 302.035156 265.21875 C 241.347656 257.5 191.671875 243.273438 153.941406 229.011719 C 98.066406 207.898438 68.320312 186.675781 67.75 186.238281 C 63.507812 183.136719 57.574219 184.070312 54.472656 188.3125 C 51.355469 192.53125 52.289062 198.484375 56.527344 201.585938 C 57.765625 202.515625 87.832031 224.273438 145.039062 246.183594 C 181.003906 259.933594 232.847656 275.488281 298.386719 283.933594 C 297.832031 288.574219 297.566406 293.3125 297.566406 298.101562 C 297.566406 365.980469 352.777344 421.210938 420.652344 421.210938 C 488.53125 421.210938 543.757812 365.980469 543.757812 298.101562 C 543.757812 291.523438 543.246094 285.054688 542.238281 278.742188 C 602.792969 268.890625 651.136719 254.226562 686.015625 241.027344 C 750.773438 216.570312 784.054688 192.246094 785.425781 191.21875 C 789.648438 188.101562 790.539062 182.148438 787.421875 177.925781"/></g><g id="change1_2"><path fill="#ffffff" d="M 340.144531 283.691406 C 339.089844 282.722656 338.074219 281.476562 337.121094 279.917969 C 329.3125 267.199219 346.667969 234.144531 362.710938 242.027344 C 372.390625 246.785156 369.742188 262.804688 366.03125 270.476562 C 361.578125 279.679688 349.316406 292.128906 340.144531 283.691406"/></g><g id="change1_3"><path fill="#ffffff" d="M 375.019531 236.472656 C 374.597656 235.738281 374.246094 234.859375 373.984375 233.808594 C 371.832031 225.25 387.484375 209.675781 395.136719 216.964844 C 399.753906 221.363281 395.425781 229.933594 391.96875 233.605469 C 387.824219 238.007812 378.703125 242.859375 375.019531 236.472656"/></g><g id="change4_1"><path fill="#b72223" d="M 322.691406 338.488281 C 338.605469 376.945312 376.515625 404.085938 420.65625 404.085938 C 467.269531 404.085938 506.921875 373.820312 521.070312 331.925781 C 499.46875 355.210938 468.480469 370.257812 437.390625 374.085938 C 397.316406 379.023438 353.429688 364.816406 322.691406 338.488281"/></g></g></svg>