<?xml version="1.0" encoding="UTF-8" standalone="no"?><svg xmlns="http://www.w3.org/2000/svg" xmlns:xlink="http://www.w3.org/1999/xlink" contentScriptType="text/ecmascript" fill="#000000" width="460" zoomAndPan="magnify" contentStyleType="text/css" viewBox="-0.1 -1.6 460.0 517.6" height="517.6" preserveAspectRatio="xMidYMid meet" version="1"><g id="change1_1" data-name="Layer 20"><path d="M458.154,192.141c-2.45-3.26-8-5.38-14.03-6.75l4.59-.32a5.886,5.886,0,0,0,5.3-4.61c.84-3,.07-7.18-3.02-9.36-3.24-2.28-15.95-2.08-23.51-1.73,3.1-4.69,7.62-12.98,5.48-18.87a6.165,6.165,0,0,0-5.21-4.06,7.009,7.009,0,0,0-6.63,3.09c-.78,1.2-9.86,11.38-15.74,17.89-7.44,1.11-18.26,2.7-22.62,3.25l-.23-3.91a2,2,0,0,0-1.99-1.89h-.03l-25.17.39a21.557,21.557,0,0,0-1.83-3.58,65.373,65.373,0,0,0,22.15-40.39,29.44,29.44,0,0,0,10.05,2.01c.21,0,.42.01.64.01,6.72,0,12.45-2.39,15.8-6.59s4.15-10.03,2.2-16.01a25.46,25.46,0,0,0-10.55-13.45,17.574,17.574,0,0,0,8.1-6.22,15.371,15.371,0,0,0,2.13-14.24c-1.75-4.9-6.03-9.21-11.75-11.83a24.6,24.6,0,0,0-10.39-2.32,17.922,17.922,0,0,0,2.72-9.44,22.371,22.371,0,0,0-9.35-18.23,26.364,26.364,0,0,0-21.89-3.64,20.724,20.724,0,0,0-8.47,4.52c-1.59-9.63-10.19-19.11-20.9-21.82a26.327,26.327,0,0,0-20.45,3.22,20.415,20.415,0,0,0-7,7.41c-5.53-9.62-18.5-16.26-29.72-14.34a20.986,20.986,0,0,0-15.04,10.74,19.878,19.878,0,0,0-1.76,14.62,24.421,24.421,0,0,0-17.08,7.75,19.681,19.681,0,0,0-5.17,16.65c1.19,6.92,6.21,13.27,12.76,17.46a65.46,65.46,0,0,0-11.15,29.3l-5.23-6.84a2,2,0,0,0-2.81-.37l-3.56,2.73c-2.95-4.19-7.97-11.51-11.62-16.86a2.426,2.426,0,0,1-.14-.2c.01-.06.01-.12.02-.18.78-8.73,2.06-22.15,2.41-23.52a7.023,7.023,0,0,0-2.24-6.97,6.172,6.172,0,0,0-6.52-1.06,10.016,10.016,0,0,0-3.1,2.12l-3.93-12.26a2,2,0,0,0-2.46-1.31L1.444,86.781a1.981,1.981,0,0,0-1.22,1.01,2.005,2.005,0,0,0-.11,1.59l60.11,167.07c1.18,42.29,5.13,178.62,6.86,182.72a2.03,2.03,0,0,0,1.17,1.11c1.19.45,13.29,6.64,28.61,14.47,36.41,18.62,97.33,49.79,123.37,61.08a.564.564,0,0,0,.12.04c.06.02.11.04.17.06a2.08,2.08,0,0,0,.5.07,2.236,2.236,0,0,0,.51-.07c.05-.02.09-.03.13-.05a.428.428,0,0,0,.16-.05c22.5-9.76,68.65-32.7,105.72-51.13,24.63-12.24,45.9-22.81,52.73-25.78a1.99,1.99,0,0,0,1.21-1.83c0-7.46.1-21.75.23-39.83.34-46.24.85-116.12.05-141.27a1.724,1.724,0,0,0-.1-.55.612.612,0,0,0-.05-.12,2.261,2.261,0,0,0-.17-.35,1.923,1.923,0,0,0-.13-.17,2.183,2.183,0,0,0-.21-.22,1.462,1.462,0,0,0-.19-.16.435.435,0,0,1-.07-.06,1.894,1.894,0,0,0-.21-.09.746.746,0,0,0-.15-.09c-9.1-3.48-31.06-11.62-56.02-20.57l.26-1.03,59.31-8.78a2,2,0,0,0,1.7-2.1l-.14-2.48c5.28-.84,16.86-3.97,23.34-5.77,4.03,5.85,16.33,22.47,25.71,22.47a7.059,7.059,0,0,0,2.79-.56,4.9,4.9,0,0,0,2.72-3.35c.94-3.73-1.8-9.44-4.34-13.67,5.66,1.89,13.88,3.99,18.12,2.12a5.178,5.178,0,0,0,2.89-3.01,5.544,5.544,0,0,0-.32-4.33c-1.79-3.75-7.7-7.51-13.63-10.49,7.84.53,15.36-.15,16.49-4.46A6.858,6.858,0,0,0,458.154,192.141ZM231.724,49.421a15.512,15.512,0,0,1,4.18-13.28,20.522,20.522,0,0,1,16.8-6.4,2.024,2.024,0,0,0,1.79-.83,2,2,0,0,0,.21-1.96,15.881,15.881,0,0,1,.61-13.98,16.978,16.978,0,0,1,12.2-8.69c11.03-1.9,24.54,6.24,27.27,16.44a1.982,1.982,0,0,0,2.02,1.48,2,2,0,0,0,1.88-1.65,15.122,15.122,0,0,1,7.04-9.93,22.311,22.311,0,0,1,17.3-2.71c11,2.79,19.71,14.27,17.91,23.63a2,2,0,0,0,3.79,1.17c1.53-3.49,5.07-6.23,9.72-7.52a22.3,22.3,0,0,1,18.49,3.04,18.3,18.3,0,0,1,7.68,14.92,12.965,12.965,0,0,1-5.54,10.88,2,2,0,0,0,1.84,3.53c3.86-1.5,8.98-1.11,13.71,1.05,4.67,2.14,8.27,5.7,9.64,9.53a11.451,11.451,0,0,1-1.62,10.58,13.9,13.9,0,0,1-11.49,5.73,2,2,0,0,0-.55,3.93,21.038,21.038,0,0,1,13.95,13.57c1.52,4.67.96,9.15-1.53,12.27-2.67,3.36-7.48,5.2-13.23,5.08a24.915,24.915,0,0,1-9.67-2.19c2.29-29.47-15.35-59.26-45.64-72.49a76.657,76.657,0,0,0-56.35-2.41,68.115,68.115,0,0,0-31.21,22.11C237.174,60.721,232.724,55.271,231.724,49.421Zm1.27,52.15a61.132,61.132,0,0,1,5.05-21.34,61.937,61.937,0,0,1,6-10.72q1.17-1.68,2.46-3.27a64.163,64.163,0,0,1,28.96-20.26,70.837,70.837,0,0,1,23.56-4.02,73.48,73.48,0,0,1,15.1,1.58,76.612,76.612,0,0,1,14.76,4.74c28.04,12.24,44.65,39.42,43.37,66.61-.07,1.52-.2,3.04-.38,4.56a61.579,61.579,0,0,1-20.81,39.09c-1.01.87-2.05,1.72-3.12,2.51a62.177,62.177,0,0,1-6.59,4.43,64.906,64.906,0,0,1-8.36,4.13,72.654,72.654,0,0,1-56.65-1.03c-25.44-11.12-41.48-34.52-43.27-59.08-.03-.45-.06-.9-.08-1.35-.05-.88-.08-1.77-.08-2.66C232.894,104.191,232.924,102.881,232.994,101.571Zm41.75,70.67a78.148,78.148,0,0,0,31.38,6.61,73.908,73.908,0,0,0,36.31-9.39,66.423,66.423,0,0,0,6.42-4.1q.765-.555,1.53-1.14c.21.36.42.73.61,1.11a16.883,16.883,0,0,1,1.43,3.98,17.324,17.324,0,0,1,.44,3.23c.46,10.73-8.83,19.98-18.08,22.73-23.97,7.1-47.52,5.05-69.47-5.86-1.19-.58-2.37-1.2-3.55-1.84a125.275,125.275,0,0,1-26.3-19.42c-15.72-14.92-20.99-33.25-14.09-49.04,1.82-4.18,4.47-7.09,7.77-8.57C231.324,136.271,248.164,160.631,274.744,172.241Zm-54.61-76.62,2.07-1.59,6.73,8.81c-.04,1.17-.04,2.33-.02,3.49-3.81,1.29-8.22,4.33-11.21,11.18-7.6,17.4-1.99,37.42,15,53.54a129.244,129.244,0,0,0,27.36,20.16l-8.1,17.42-1.69,3.64-4.09,8.78-1.71,3.66-2.52,5.41-.06.14-1.43-.66-.03-.01-20.5-9.36-7.81-3.56-14.76-6.74-5.3-2.42-18.44-8.42,24.64-30.95a2,2,0,0,0,.21-2.16l-19.75-38.53,2.89-2.22Zm59.12,162.49a11.982,11.982,0,0,1-3.64,3.06,18.881,18.881,0,0,1-3.75,1.59,33.791,33.791,0,0,1-8.33,1.41,51.27,51.27,0,0,1-5.55.01,90.936,90.936,0,0,1-30.06-7.21,81.934,81.934,0,0,1-18.12-10.16h-.01a44.238,44.238,0,0,1-4.27-3.67,29.353,29.353,0,0,1-4-4.7,17.563,17.563,0,0,1-1.9-3.66c-.14-.37-.25-.74-.35-1.11a8.007,8.007,0,0,1,1.36-7.3c2.16-2.8,6.01-4.64,10.98-5.53l10.76,4.91c-7.42-.57-12.64.55-14.24,2.63a4.576,4.576,0,0,0-.6,4.16,8.365,8.365,0,0,0,.35,1.03,16.314,16.314,0,0,0,2.45,3.96,34.909,34.909,0,0,0,5.85,5.57,62.514,62.514,0,0,0,8.7,5.54c2.36,1.26,4.99,2.51,7.9,3.73a91.775,91.775,0,0,0,15.02,4.85,66.031,66.031,0,0,0,9.85,1.51c1.24.1,2.41.14,3.52.14a27.81,27.81,0,0,0,6.52-.67,7.771,7.771,0,0,0,3.83-1.86,1.794,1.794,0,0,0,.23-.25,4.568,4.568,0,0,0,.6-4.16,13.117,13.117,0,0,0-2.36-4.43l10.92,4.99A7.769,7.769,0,0,1,279.254,258.111Zm-50.67,61.67c-1.17.18-2.37.35-3.57.49q-4.485.54-8.63.77c-3.91-1.69-8.04-3.49-12.36-5.37,1.89.13,3.9.2,6.01.2a114.719,114.719,0,0,0,13.68-.86,98.827,98.827,0,0,0,20.14-4.43,75.369,75.369,0,0,0,9.19-1.44Q240.819,314.451,228.584,319.781ZM195.4,234.7a14.233,14.233,0,0,0,.43,1.36,16.359,16.359,0,0,0-7.23,5.47,11.466,11.466,0,0,0-1.5,10.27,19.807,19.807,0,0,0,2.97,5.79,15.6,15.6,0,0,0-5.52,5.42,11.743,11.743,0,0,0-.63,10.57c.05.13.1.25.16.38-4.89,2.54-8.08,5.85-9.05,9.79a11.291,11.291,0,0,0,2.01,9.3,19.439,19.439,0,0,0,2.55,2.93,23.3,23.3,0,0,0-4.95,4.84,16.319,16.319,0,0,0-1.04,1.62c-42.62-18.56-89.96-39.21-105.42-45.96-.13-.06-.25-.11-.37-.16,5.78-2.02,16.7-5.98,35.33-12.76,7.21-2.62,15.27-5.56,23.69-8.62,22.15-8.03,46.8-16.89,65-23.13l14.02,6.4a18.024,18.024,0,0,0-8.39,5.71A12.015,12.015,0,0,0,195.4,234.7Zm-7.25,53.95a10.331,10.331,0,0,0,1.55,1.71,22.148,22.148,0,0,0,3.89,2.75,46.75,46.75,0,0,0,7.53,3.35,74,74,0,0,0,7.21,2.14,108.831,108.831,0,0,0,13.18,2.32,112.219,112.219,0,0,0,12.67.75,88.212,88.212,0,0,0,9.9-.54c1.03.04,2.05.06,3.05.06,8.63,0,15.95-1.52,21.06-4.47a8.882,8.882,0,0,1-1.09,1.43c-2.15,2.37-5.86,4.46-10.88,6.02a65.223,65.223,0,0,1-13.17,2.48,112.7,112.7,0,0,1-23.36-.44,107.2,107.2,0,0,1-21.33-4.55q-2.82-.945-5.31-2a46.53,46.53,0,0,1-6.52-3.37,26.73,26.73,0,0,1-3.52-2.58,16.845,16.845,0,0,1-2.69-2.94,7.362,7.362,0,0,1-1.41-6.06c.71-2.88,3.22-5.36,7.09-7.32a28.215,28.215,0,0,0,4.13,4.65,5.58,5.58,0,0,0-2.83,3.13A4.217,4.217,0,0,0,188.154,288.651Zm3.1-2.57a5.865,5.865,0,0,1,2.13-1.35c.76.57,1.55,1.13,2.38,1.68a85.614,85.614,0,0,0,22.05,9.98,92.621,92.621,0,0,1-9.41-1.9,61.615,61.615,0,0,1-9.47-3.2,33.257,33.257,0,0,1-4.88-2.61A8.08,8.08,0,0,1,191.254,286.081Zm34.18,24.67c-.72.1-1.45.2-2.2.29-20.58,2.48-32.86-1.33-34.57-3.37.34-.7,1.79-2.06,4.58-3.62a104.3,104.3,0,0,0,25.99,6.13Q222.384,310.541,225.434,310.751Zm-47.56-7.57a20.894,20.894,0,0,1,4.91-4.6,42.74,42.74,0,0,0,6.04,3.53,13.421,13.421,0,0,0-3.21,2.94,5.021,5.021,0,0,0-.97,2.19q-3.63-1.575-7.34-3.2C177.474,303.751,177.664,303.471,177.874,303.181Zm91.14-11.98a20.287,20.287,0,0,1-9.18,4.54,54.95,54.95,0,0,1-15.36,1.33,99.394,99.394,0,0,1-24.77-4.28,84.073,84.073,0,0,1-21.54-9.58,46.582,46.582,0,0,1-4.02-2.96,27.262,27.262,0,0,1-4.37-4.47,15.159,15.159,0,0,1-2.03-3.45,2.14,2.14,0,0,1-.1-.22,7.79,7.79,0,0,1,.37-7.1,12.113,12.113,0,0,1,4.62-4.32,42.326,42.326,0,0,0,4.59,4.24,4.62,4.62,0,0,0-1.43,1.47,4.288,4.288,0,0,0-.2,3.65,3.428,3.428,0,0,0,.13.38,11.771,11.771,0,0,0,2.08,3.25,28.937,28.937,0,0,0,5.27,4.64,50.635,50.635,0,0,0,5.68,3.45,82.409,82.409,0,0,0,14.93,6,87.509,87.509,0,0,0,24.57,3.97,45.516,45.516,0,0,0,6.64-.45,21.333,21.333,0,0,0,4.58-1.16,6.6,6.6,0,0,0,3.51-2.53,4.187,4.187,0,0,0,.29-3.37c-.03-.09-.05-.19-.09-.28a28.294,28.294,0,0,0,7.76-2.51,4.426,4.426,0,0,1,.2.45,8.23,8.23,0,0,1,.41,5.25,7.6,7.6,0,0,1-.78,1.85A10.121,10.121,0,0,1,269.014,291.2Zm-69.73-22.83a3.927,3.927,0,0,1,1.47-.81,93.929,93.929,0,0,0,19.47,10.02c12.3,4.76,24.21,7.13,34.05,7.13,1.67,0,3.29-.07,4.83-.21a2.406,2.406,0,0,1,.39,1.13c-.42.47-1.67,1.01-3.68,1.42a38.954,38.954,0,0,1-7.43.68,81.1,81.1,0,0,1-23.55-3.79c-2.33-.7-4.47-1.44-6.43-2.18a66.231,66.231,0,0,1-8.72-4.01,38.664,38.664,0,0,1-7-4.81,13.728,13.728,0,0,1-3.11-3.62A2.08,2.08,0,0,1,199.284,268.371Zm69.58,9.66a26,26,0,0,1-7.93,2.23,45.7,45.7,0,0,1-5.29.4c-.39.01-.78.01-1.18.01-9.41,0-21.07-2.28-32.79-6.82a97.894,97.894,0,0,1-15.27-7.39c-1.77-1.07-3.4-2.17-4.91-3.28a46.137,46.137,0,0,1-4.98-4.2,30.289,30.289,0,0,1-2.84-3.21,16.652,16.652,0,0,1-2.75-5.13,7.461,7.461,0,0,1,.95-6.81,12.493,12.493,0,0,1,5.7-4.18,29.883,29.883,0,0,0,3.67,4.82,4.619,4.619,0,0,0-1.58,1.34,4.377,4.377,0,0,0-.41,3.95,12.263,12.263,0,0,0,2.18,3.87,28.318,28.318,0,0,0,3.45,3.59,50.267,50.267,0,0,0,6.87,5.05,77.878,77.878,0,0,0,9.11,4.81q2.46,1.125,5.21,2.19a94.886,94.886,0,0,0,20.07,5.45,57.276,57.276,0,0,0,8.57.7c.2,0,.4,0,.6-.01,4.09-.05,7.23-.72,9.06-1.89a4.2,4.2,0,0,0,1.25-1.14,3.9,3.9,0,0,0,.67-2.42,5.765,5.765,0,0,0-.26-1.53c-.04-.12-.08-.25-.13-.38a34.936,34.936,0,0,0,7.99-1.74,8.9,8.9,0,0,1,.46,1.24,7.43,7.43,0,0,1-.94,6.81,9.777,9.777,0,0,1-1.24,1.43A13.257,13.257,0,0,1,268.864,278.031Zm-65.89-29.95a3.768,3.768,0,0,1,1.33-.61c5.42,4.83,12.97,9.39,22.08,13.19,12.21,5.11,24.19,7.66,34.12,7.66.37,0,.74,0,1.1-.02a3.6,3.6,0,0,1,.7,1.81,4.353,4.353,0,0,1-1.65.7c-2.39.61-7.02.91-13.41.02a88.32,88.32,0,0,1-19.73-5.29q-2.94-1.14-5.47-2.31a67.252,67.252,0,0,1-11.18-6.35,36.577,36.577,0,0,1-4.6-3.86C203.834,250.6,202.914,248.771,202.974,248.081Zm65.62,5.56-.03.03c-.5.5-2.24.99-5.01,1.17a54.254,54.254,0,0,1-14.34-1.39,91.448,91.448,0,0,1-22.86-8.56,51.725,51.725,0,0,1-10.37-7.15,22.575,22.575,0,0,1-3.7-4.24c-.86-1.33-1.12-2.28-.99-2.67.58-.63,3.11-1.25,7.18-1.25a57.2,57.2,0,0,1,11.49,1.29,80.55,80.55,0,0,1,8.86,2.4h.01l3.2,1.46,14.8,6.76.01.01C266.374,247.381,268.954,252.571,268.594,253.641Zm-70.56-203.49a7.964,7.964,0,0,1,3.22-2.88,2.207,2.207,0,0,1,2.37.41,2.972,2.972,0,0,1,.95,2.96c-.31,1.26-1.03,8.35-1.65,14.76-.42,4.44-.79,8.56-.93,10.19a.22.22,0,0,0-.01.08,2,2,0,0,0,.34,1.3c.07.1.14.21.21.32,1.98,2.9,5.07,7.41,7.91,11.53,1.53,2.22,2.99,4.33,4.17,6l-31.94,24.54c-2.6-4.53-6.46-11.74-9.91-18.48a2.009,2.009,0,0,0-1.78-1.08c-.11,0-.21.01-.32.02-12.32,1.96-30.53,2.29-32.43-3.05a.915.915,0,0,1,.14-.89c1.69-2.6,10.51-4.67,16.23-5.31a2,2,0,0,0,1.75-1.67,1.974,1.974,0,0,0-1.14-2.13c-5.99-2.74-15.99-8.5-17.3-12.33a1.22,1.22,0,0,1,0-1.02,1.565,1.565,0,0,1,1.05-.73c5-1.57,19.69,4.57,27.77,8.81a2,2,0,0,0,2.11-3.39c-11.94-8.67-19.85-17.52-18.68-19.35a2.812,2.812,0,0,1,2.28-1.38c7.11-.74,22.42,13.19,27.7,18.62a2,2,0,0,0,2.99-2.65l-16.39-20.34a1.957,1.957,0,0,1,.09-2.42,4.917,4.917,0,0,1,4.67-2.33c2.31.5,10.96,9.68,17.65,17.91a1.972,1.972,0,0,0,2.07.67,2.012,2.012,0,0,0,1.46-1.62,51.634,51.634,0,0,1,2.75-10.07A24.228,24.228,0,0,1,198.034,50.151ZM4.6,90.031l184.85-53.52,4.2,13.09a42.927,42.927,0,0,0-4.07,10.83c-4.89-5.79-13.37-15.25-17.25-16.08-3.7-.79-7.28,1.49-8.91,4.14a5.894,5.894,0,0,0,.21,7.03l2.89,3.58c-5.1-3.48-10.43-6.12-14.48-5.7a6.848,6.848,0,0,0-5.25,3.21c-2.4,3.76,2.22,9.74,7.93,15.13-6.21-2.32-12.99-4.11-16.95-2.87a5.54,5.54,0,0,0-3.4,2.7,5.189,5.189,0,0,0-.24,4.17c1.5,4.38,8.64,8.98,13.86,11.85-4.82,1.02-10.87,2.89-12.97,6.11a4.926,4.926,0,0,0-.58,4.34c3.45,9.72,27.66,7.07,35.41,5.95,2.48,4.82,6.58,12.64,9.64,17.82l-4.53,3.48a2.009,2.009,0,0,0-.56,2.5l19.92,38.87L168.9,198.6a2.009,2.009,0,0,0,.73,3.07l16.92,7.73c-21.45,7.39-51.62,18.32-84.78,30.4-17.75,6.46-33.41,12.16-38.33,13.81Zm214.42,420.91c-27.28-12.15-85.23-41.79-120.34-59.75-15.94-8.15-24.89-12.73-27.99-14.19-1.31-10.68-4.47-109.74-6.4-177.83l107.84,47.97,4.05,1.8,27.14,12.08,9.35,4.15,6.35,2.83Zm158.69-113.71c-.12,17.09-.22,30.79-.23,38.56-7.96,3.58-28.33,13.71-51.72,25.33-35.55,17.67-79.46,39.5-102.74,49.82.01-13.78.08-33.17.15-53.62.16-48.82.37-109-.08-129.35l11.6-5.16,32.91-14.65,110.25-49.06C378.524,286.351,378.044,352.741,377.714,397.231Zm-3.25-141.05c-25.12,10.91-50.42,21.95-74.93,32.66q-14.04,6.135-28.37,12.39a10.163,10.163,0,0,0,.12-1.91,11.157,11.157,0,0,0,1.72-3.75,10.143,10.143,0,0,0,.27-3.15,14.874,14.874,0,0,0,.96-1.43,11.774,11.774,0,0,0,.63-10.57q-.24-.6-.54-1.2a13.568,13.568,0,0,0,2.36-2.56,11.445,11.445,0,0,0,1.5-10.26,15.044,15.044,0,0,0-.63-1.73,16.146,16.146,0,0,0,4.87-4.12,11.769,11.769,0,0,0,2.48-6.24l28.76,13.13a2,2,0,0,0,1.7-.02,1.975,1.975,0,0,0,1.07-1.32l7.08-28.61C343.884,244.8,362.544,251.681,374.464,256.181Zm-51.66-27.36a2.012,2.012,0,0,0-1.65,1.5l-.48,1.94-.96,3.87-6.58,26.67-28.67-13.09-5.33-2.43-20.4-9.32-.01-.01-13.2-6.02.18-.4,2.56-5.49,1.7-3.64,4.14-8.9,1.69-3.63,7.82-16.8a96.536,96.536,0,0,0,43.27,10.37,101.852,101.852,0,0,0,29.04-4.34c10.57-3.13,21.5-13.57,20.94-26.73a21.744,21.744,0,0,0-.37-3.13l22.16-.34.24,4.02.01.22v.11l2.58,44.35.15,2.51Zm132.69-31.66c-.55,2.1-12.41,2.31-26.89-.56a2,2,0,0,0-1.05,3.85c8.6,3.05,23.08,9.65,25.34,14.39a1.56,1.56,0,0,1,.17,1.27,1.207,1.207,0,0,1-.75.69c-3.69,1.64-14.71-1.78-20.8-4.31a1.987,1.987,0,0,0-2.34.61,2.01,2.01,0,0,0-.04,2.42c3.42,4.63,7.9,12.51,7.14,15.52a.9.9,0,0,1-.49.67c-5.27,2.26-17.41-11.32-24.35-21.69a1.994,1.994,0,0,0-1.66-.89,2.017,2.017,0,0,0-.54.08c-9.39,2.63-19.82,5.31-23.88,6.04l-2.36-40.59c5.1-.62,17.71-2.49,23.69-3.39a1.975,1.975,0,0,0,1.19-.64c2.56-2.83,15.39-17.07,16.6-18.91a2.971,2.971,0,0,1,2.82-1.31,2.214,2.214,0,0,1,1.91,1.46c1.88,5.14-4.67,15.09-7.34,18.49a2,2,0,0,0,1.7,3.24c10.58-.69,23.2-.59,25.13.77a4.9,4.9,0,0,1,1.47,5.01c-.3,1.07-.88,1.65-1.72,1.7l-26.06,1.8a2,2,0,0,0,.09,4c7.57.19,28.17,1.93,32.48,7.66A2.814,2.814,0,0,1,455.494,197.161Z"/><path d="M277.083,108.783c-1.916,4.386-1.405,9.472,1.437,14.321a27.669,27.669,0,0,0,12.887,10.987,29.215,29.215,0,0,0,11.628,2.507c7.56,0,14.095-3.3,16.672-9.2,1.916-4.386,1.405-9.472-1.437-14.322a27.668,27.668,0,0,0-12.887-10.986C293.631,96.959,280.936,99.96,277.083,108.783Zm16.56-5.232a25.552,25.552,0,0,1,10.14,2.207,23.658,23.658,0,0,1,11.036,9.343c2.179,3.717,2.613,7.516,1.222,10.7-2.969,6.8-13.3,8.877-23.033,4.626a23.645,23.645,0,0,1-11.036-9.344c-2.179-3.716-2.613-7.515-1.223-10.7C282.675,105.974,287.7,103.551,293.643,103.551Z"/><path d="M276.447,81.263a8.8,8.8,0,0,0,7.045-16.127h0a8.8,8.8,0,0,0-7.044,16.128Zm-.876-9.985a4.8,4.8,0,1,1,2.477,6.319A4.806,4.806,0,0,1,275.571,71.278Z"/><path d="M345.835,111.57a8.8,8.8,0,1,0-4.542-11.586A8.779,8.779,0,0,0,345.835,111.57Zm-.876-9.985a4.8,4.8,0,1,1,2.477,6.32A4.806,4.806,0,0,1,344.959,101.585Z"/><path d="M276.567,165.7l.432.191a60.264,60.264,0,0,0,24.12,4.916c17.3,0,34.68-6.985,46.423-19.753a11.191,11.191,0,0,0-.659-15.8h0a11.178,11.178,0,0,0-15.795.659c-11,11.955-30.519,15.982-45.4,9.369-14.862-6.639-24.886-23.864-23.317-40.067a11.179,11.179,0,1,0-22.253-2.156C237.623,128.806,252.953,155.149,276.567,165.7ZM244.1,103.448a7.179,7.179,0,0,1,7.131-6.487q.353,0,.707.034a7.176,7.176,0,0,1,6.452,7.837c-1.728,17.836,9.307,36.8,25.671,44.107,16.385,7.281,37.868,2.845,49.972-10.315a7.178,7.178,0,0,1,10.143-.424h0a7.178,7.178,0,0,1,.424,10.143c-16.238,17.653-44,23.489-66,13.878l-.4-.176C256.106,152.177,241.765,127.533,244.1,103.448Z"/><path d="M280.339,157.256l.366.161c20.037,8.752,45.223,3.476,60.033-12.625a1.933,1.933,0,0,0-2.845-2.617c-13.727,14.924-37.067,19.813-55.638,11.7l-.339-.15c-18.626-8.32-30.716-29.1-28.749-49.4a1.932,1.932,0,0,0-3.847-.372C247.2,125.862,260.243,148.279,280.339,157.256Z"/><path d="M178.82,358.963H157.389a4.515,4.515,0,0,1-4.191-3.543l-6.419-23.051a8.235,8.235,0,0,0-16.088,0l-6.42,23.051a4.513,4.513,0,0,1-4.19,3.543H98.65a8.276,8.276,0,0,0-7.8,5.72,9.416,9.416,0,0,0,2.622,10.556L111.352,390.4a5.567,5.567,0,0,1,1.6,5.681l-6.7,24.051a9.339,9.339,0,0,0,3.786,10.487,7.724,7.724,0,0,0,9.439-.682l16.666-14.127a3.9,3.9,0,0,1,5.187,0L158,429.933a7.73,7.73,0,0,0,9.439.682,9.339,9.339,0,0,0,3.786-10.487l-6.7-24.051a5.567,5.567,0,0,1,1.6-5.681L184,375.239a9.415,9.415,0,0,0,2.623-10.556A8.276,8.276,0,0,0,178.82,358.963Zm2.593,13.224-17.881,15.158a9.624,9.624,0,0,0-2.865,9.8l6.7,24.052a5.351,5.351,0,0,1-2.09,6.044,3.765,3.765,0,0,1-4.694-.364l-16.667-14.128a7.889,7.889,0,0,0-10.36,0l-16.667,14.129a3.769,3.769,0,0,1-4.7.363A5.352,5.352,0,0,1,110.1,421.2l6.7-24.052a9.626,9.626,0,0,0-2.864-9.8L96.057,372.188a5.491,5.491,0,0,1-1.454-6.127,4.428,4.428,0,0,1,4.047-3.1h21.431a8.464,8.464,0,0,0,8.044-6.47l6.419-23.05a4.249,4.249,0,0,1,8.381,0l6.42,23.05a8.463,8.463,0,0,0,8.044,6.47H178.82a4.429,4.429,0,0,1,4.047,3.1A5.489,5.489,0,0,1,181.413,372.187Z"/><path d="M257.525,364.306a9.414,9.414,0,0,0,3.824,10.182l19.511,12.993a5.562,5.562,0,0,1,2.242,5.458L279.226,417.6a9.336,9.336,0,0,0,4.97,9.979,8.039,8.039,0,0,0,3.534.841,7.848,7.848,0,0,0,5.763-2.607l14.924-15.957a3.907,3.907,0,0,1,5.153-.6l18.186,12.109a7.728,7.728,0,0,0,9.454-.413,9.337,9.337,0,0,0,2.55-10.853l-9.43-23.117a5.566,5.566,0,0,1,.93-5.827l16.013-17.121a9.413,9.413,0,0,0,1.386-10.787,8.279,8.279,0,0,0-8.411-4.782l-21.286,2.474a4.511,4.511,0,0,1-4.572-3.036l-9.038-22.155a8.235,8.235,0,0,0-15.98,1.857l-3.716,23.637a4.511,4.511,0,0,1-3.753,4l-21.288,2.473A8.278,8.278,0,0,0,257.525,364.306Zm28.84-5.083a8.461,8.461,0,0,0,7.242-7.355l3.716-23.638a4.25,4.25,0,0,1,8.325-.967l9.038,22.155a8.475,8.475,0,0,0,8.737,5.5l21.287-2.474a4.43,4.43,0,0,1,4.378,2.61,5.488,5.488,0,0,1-.736,6.253l-16.013,17.12a9.628,9.628,0,0,0-1.713,10.07l9.43,23.118a5.352,5.352,0,0,1-1.377,6.245,3.77,3.77,0,0,1-4.706.181l-18.186-12.11a7.89,7.89,0,0,0-10.291,1.2l-14.924,15.958a3.768,3.768,0,0,1-4.622.9,5.353,5.353,0,0,1-2.773-5.763l3.877-24.664a9.627,9.627,0,0,0-3.977-9.409l-19.512-12.992a5.489,5.489,0,0,1-2.15-5.918,4.428,4.428,0,0,1,3.662-3.544Z"/></g></svg>