<?xml version="1.0" encoding="UTF-8" standalone="no"?><svg xmlns="http://www.w3.org/2000/svg" xmlns:xlink="http://www.w3.org/1999/xlink" contentScriptType="text/ecmascript" fill="#000000" width="58" zoomAndPan="magnify" contentStyleType="text/css" viewBox="0.0 0.9 58.0 57.1" height="57.1" preserveAspectRatio="xMidYMid meet" version="1"><defs><clipPath id="a"><path d="M 0 0.914062 L 58 0.914062 L 58 58 L 0 58 Z M 0 0.914062"/></clipPath></defs><g><g id="change1_1" clip-path="url(#a)"><path fill="inherit" d="M 56.539062 26.28125 C 58.117188 27.859375 58.117188 30.417969 56.539062 31.996094 L 31.71875 56.816406 C 30.929688 57.605469 29.894531 58 28.859375 58 C 27.828125 58 26.792969 57.605469 26.003906 56.816406 L 1.183594 31.996094 C -0.394531 30.417969 -0.394531 27.859375 1.183594 26.28125 C 2.761719 24.703125 5.320312 24.703125 6.902344 26.28125 L 28.859375 48.242188 L 50.820312 26.28125 C 52.402344 24.703125 54.960938 24.703125 56.539062 26.28125 Z M 26.003906 32.632812 C 26.792969 33.421875 27.828125 33.816406 28.859375 33.816406 C 29.894531 33.816406 30.929688 33.421875 31.71875 32.632812 L 56.539062 7.816406 C 58.117188 6.234375 58.117188 3.675781 56.539062 2.097656 C 54.960938 0.519531 52.402344 0.519531 50.820312 2.097656 L 28.859375 24.058594 L 6.902344 2.097656 C 5.320312 0.519531 2.761719 0.519531 1.183594 2.097656 C -0.394531 3.675781 -0.394531 6.234375 1.183594 7.816406 Z M 26.003906 32.632812"/></g></g></svg>